<svg width="44" height="44" viewBox="0 0 44 44" fill="none" xmlns="http://www.w3.org/2000/svg">
<path d="M0 6C0 2.68629 2.68629 0 6 0H38C41.3137 0 44 2.68629 44 6V38C44 41.3137 41.3137 44 38 44H6C2.68629 44 0 41.3137 0 38V6Z" fill="#2776FF" fill-opacity="0.16"/>
<path d="M24.3307 28.0185C24.0273 28.6849 23.8268 29.4081 23.75 30.1665L30.1693 28.8145C30.4727 28.1482 30.673 27.4249 30.75 26.6665L24.3307 28.0185Z" fill="#2776FF"/>
<path d="M30.1919 25.2619C30.4834 24.6366 30.676 23.9578 30.7498 23.246L25.9452 24.2349V22.3339L30.1918 21.4606C30.4832 20.8354 30.6759 20.1565 30.7497 19.4448L25.945 20.4328V13.5963C25.2088 13.9963 24.555 14.5288 24.0235 15.1569V20.8282L22.1019 21.2234V12.6665C21.3657 13.0664 20.7119 13.599 20.1804 14.2271V21.6185L15.8809 22.5026C15.5895 23.1279 15.3967 23.8067 15.3227 24.5185L20.1804 23.5195V25.9134L14.9744 26.984C14.683 27.6093 14.4903 28.2881 14.4165 28.9998L19.8657 27.8792C20.3093 27.7899 20.6905 27.5361 20.9384 27.1869L21.9378 25.7531V25.7529C22.0415 25.6045 22.1019 25.4257 22.1019 25.233V23.1243L24.0235 22.729V26.531L30.1918 25.2616L30.1919 25.2619Z" fill="#2776FF"/>
</svg>
