<svg width="44" height="44" viewBox="0 0 44 44" fill="none" xmlns="http://www.w3.org/2000/svg">
<path d="M0 6C0 2.68629 2.68629 0 6 0H38C41.3137 0 44 2.68629 44 6V38C44 41.3137 41.3137 44 38 44H6C2.68629 44 0 41.3137 0 38V6Z" fill="#00BAD1" fill-opacity="0.16"/>
<ellipse cx="18.5002" cy="16.1667" rx="4.66667" ry="4.66667" stroke="#00BAD1" stroke-width="1.5" stroke-linecap="round" stroke-linejoin="round"/>
<ellipse cx="18.5002" cy="16.1667" rx="4.66667" ry="4.66667" stroke="white" stroke-opacity="0.2" stroke-width="1.5" stroke-linecap="round" stroke-linejoin="round"/>
<path d="M11.5 32.5V30.1667C11.5 27.5893 13.5893 25.5 16.1667 25.5H20.8333C23.4107 25.5 25.5 27.5893 25.5 30.1667V32.5" stroke="#00BAD1" stroke-width="1.5" stroke-linecap="round" stroke-linejoin="round"/>
<path d="M11.5 32.5V30.1667C11.5 27.5893 13.5893 25.5 16.1667 25.5H20.8333C23.4107 25.5 25.5 27.5893 25.5 30.1667V32.5" stroke="white" stroke-opacity="0.2" stroke-width="1.5" stroke-linecap="round" stroke-linejoin="round"/>
<path d="M26.6665 11.6514C28.7314 12.1801 30.1757 14.0407 30.1757 16.1722C30.1757 18.3037 28.7314 20.1643 26.6665 20.693" stroke="#00BAD1" stroke-width="1.5" stroke-linecap="round" stroke-linejoin="round"/>
<path d="M26.6665 11.6514C28.7314 12.1801 30.1757 14.0407 30.1757 16.1722C30.1757 18.3037 28.7314 20.1643 26.6665 20.693" stroke="white" stroke-opacity="0.2" stroke-width="1.5" stroke-linecap="round" stroke-linejoin="round"/>
<path d="M32.5 32.4998V30.1665C32.4878 28.0485 31.0508 26.2043 29 25.6748" stroke="#00BAD1" stroke-width="1.5" stroke-linecap="round" stroke-linejoin="round"/>
<path d="M32.5 32.4998V30.1665C32.4878 28.0485 31.0508 26.2043 29 25.6748" stroke="white" stroke-opacity="0.2" stroke-width="1.5" stroke-linecap="round" stroke-linejoin="round"/>
</svg>
