<svg width="237" height="236" viewBox="0 0 237 236" fill="none" xmlns="http://www.w3.org/2000/svg">
<mask id="mask0_793_15262" style="mask-type:alpha" maskUnits="userSpaceOnUse" x="1" y="0" width="236" height="235">
<circle cx="119.054" cy="117.412" r="117.273" fill="#A72037" fill-opacity="0.9"/>
</mask>
<g mask="url(#mask0_793_15262)">
<path d="M119.054 0.138184C99.001 0.138183 79.2826 5.28044 61.7831 15.0737C44.2836 24.8669 29.5878 38.9838 19.0995 56.0758C8.61131 73.1678 2.68116 92.6637 1.87565 112.701C1.07015 132.738 5.41621 152.647 14.4986 170.526C23.581 188.405 37.0963 203.656 53.7532 214.822C70.41 225.988 89.652 232.697 109.641 234.306C129.629 235.916 149.697 232.373 167.926 224.016C186.155 215.66 201.937 202.768 213.763 186.573L119.054 117.412V0.138184Z" fill="#005EFF"/>
</g>
<path d="M118.465 235.997C118.463 235.997 118.461 235.996 118.458 235.996C118.47 235.996 118.482 235.996 118.494 235.996C118.484 235.996 118.475 235.997 118.465 235.997ZM195.975 206.966C176.167 224.239 150.538 235.003 122.417 235.928C138.016 235.405 153.403 231.793 167.669 225.248C177.972 220.521 187.497 214.353 195.975 206.966ZM40.8687 206.891C44.6307 210.175 48.6077 213.228 52.7817 216.025C69.545 227.257 88.909 234.003 109.023 235.618C110.828 235.763 112.635 235.865 114.44 235.926C86.3072 234.983 60.672 224.192 40.8687 206.891ZM36.8257 203.193C37.6681 204 38.5216 204.796 39.3882 205.579C38.5221 204.796 37.6682 204 36.8257 203.193ZM28.9634 194.894C29.7544 195.815 30.5603 196.723 31.3794 197.619C30.5602 196.723 29.755 195.815 28.9634 194.894ZM207.136 195.848C206.877 196.144 206.616 196.438 206.353 196.731C206.615 196.438 206.877 196.144 207.136 195.848ZM119.99 0.0131836C184.455 0.829537 236.461 53.341 236.461 118C236.461 147.687 225.496 174.812 207.397 195.55C209.634 192.985 211.765 190.318 213.781 187.555L118.465 118V0.00341797L119.99 0.0131836ZM0.538574 122.048C1.12787 139.215 5.45987 156.084 13.2739 171.459C17.5505 179.874 22.8032 187.711 28.8989 194.818C11.9966 175.129 1.47443 149.805 0.538574 122.048ZM31.3872 38.3726C26.3479 43.8834 21.8241 49.8807 17.8892 56.2944C7.33687 73.4941 1.371 93.1124 0.562988 113.275C0.555333 113.466 0.548229 113.657 0.541504 113.848C1.54618 84.7942 13.0544 58.4097 31.3872 38.3726ZM35.2192 34.3745C34.4135 35.1766 33.6198 35.9907 32.8374 36.8159C33.6198 35.9909 34.4135 35.1766 35.2192 34.3745ZM39.3989 30.4106C38.526 31.1986 37.6658 32.0004 36.8169 32.814C37.6656 32.0003 38.5262 31.1989 39.3989 30.4106ZM40.855 29.1177C60.6495 11.8192 86.2741 1.02693 114.395 0.0737305C95.625 0.721457 77.2595 5.84196 60.8364 15.0337C53.6783 19.04 46.9857 23.7645 40.855 29.1177ZM115.633 0.0366211C115.409 0.0420136 115.184 0.0494787 114.959 0.0561523C115.184 0.049603 115.409 0.041915 115.633 0.0366211ZM197.332 205.765C196.896 206.157 196.458 206.546 196.016 206.931C196.458 206.546 196.896 206.157 197.332 205.765ZM39.563 30.2632C39.9908 29.8782 40.4215 29.4965 40.855 29.1177C40.4214 29.4963 39.9909 29.8783 39.563 30.2632Z" fill="#24B364"/>
</svg>
