<svg width="12" height="14"
                                            viewBox="0 0 12 14" fill="none" xmlns="http://www.w3.org/2000/svg">
                                            <g clip-path="url(#clip0_792_13773)">
                                                <path
                                                    d="M7.4646 12.0158C7.25046 12.476 7.10892 12.9754 7.05469 13.4992L11.5863 12.5655C11.8004 12.1054 11.9418 11.6058 11.9962 11.082L7.4646 12.0158Z"
                                                    fill="#B3B3B3" />
                                                <path
                                                    d="M11.5898 9.76894C11.804 9.3088 11.9455 8.80924 11.9998 8.28547L8.4698 9.01318V7.61426L11.5897 6.9716C11.8039 6.51146 11.9454 6.0119 11.9996 5.48813L8.4697 6.21522V1.18425C7.9288 1.47863 7.44844 1.87047 7.05795 2.33268V6.50618L5.64621 6.79704V0.5C5.10531 0.794272 4.62495 1.18622 4.23446 1.64843V7.08779L1.07567 7.73842C0.861535 8.19856 0.71988 8.69811 0.665545 9.22188L4.23446 8.48672V10.2484L0.409669 11.0363C0.195532 11.4964 0.053984 11.9959 -0.000244141 12.5197L4.00324 11.695C4.32915 11.6293 4.60925 11.4426 4.79137 11.1856L5.52558 10.1305V10.1303C5.6018 10.0211 5.64621 9.88948 5.64621 9.74772V8.19587L7.05795 7.90501V10.7029L11.5897 9.76873L11.5898 9.76894Z"
                                                    fill="#B3B3B3" />
                                            </g>
                                            <defs>
                                                <clipPath id="clip0_792_13773">
                                                    <rect width="12" height="13" fill="white"
                                                        transform="translate(0 0.5)" />
                                                </clipPath>
                                            </defs>
                                        </svg>