<svg width="21" height="24" viewBox="0 0 21 24" fill="none" xmlns="http://www.w3.org/2000/svg">
<g clip-path="url(#clip0_793_14593)">
<path d="M13.222 20.874C12.8548 21.6883 12.612 22.572 12.519 23.4986L20.2903 21.8467C20.6575 21.0326 20.9001 20.1487 20.9933 19.2221L13.222 20.874Z" fill="#2B323D"/>
<path d="M13.222 20.874C12.8548 21.6883 12.612 22.572 12.519 23.4986L20.2903 21.8467C20.6575 21.0326 20.9001 20.1487 20.9933 19.2221L13.222 20.874Z" fill="white" fill-opacity="0.1"/>
<path d="M20.2967 16.8989C20.6639 16.0848 20.9066 15.201 20.9996 14.2743L14.9461 15.5618V13.0868L20.2965 11.9497C20.6637 11.1357 20.9065 10.2518 20.9994 9.32516L14.9459 10.6115V1.7106C14.0183 2.23142 13.1945 2.92468 12.5249 3.74243V11.1263L10.1038 11.6409V0.5C9.17625 1.02063 8.35246 1.71408 7.68281 2.53183V12.1553L2.26576 13.3064C1.89853 14.1205 1.65561 15.0044 1.56243 15.931L7.68281 14.6304V17.7472L1.12362 19.1411C0.756394 19.9551 0.513651 20.839 0.420654 21.7656L7.28629 20.3066C7.84519 20.1904 8.32555 19.8599 8.63786 19.4052L9.89697 17.5385V17.5381C10.0277 17.345 10.1038 17.1122 10.1038 16.8614V14.1158L12.5249 13.6012V18.5512L20.2965 16.8985L20.2967 16.8989Z" fill="#2B323D"/>
<path d="M20.2967 16.8989C20.6639 16.0848 20.9066 15.201 20.9996 14.2743L14.9461 15.5618V13.0868L20.2965 11.9497C20.6637 11.1357 20.9065 10.2518 20.9994 9.32516L14.9459 10.6115V1.7106C14.0183 2.23142 13.1945 2.92468 12.5249 3.74243V11.1263L10.1038 11.6409V0.5C9.17625 1.02063 8.35246 1.71408 7.68281 2.53183V12.1553L2.26576 13.3064C1.89853 14.1205 1.65561 15.0044 1.56243 15.931L7.68281 14.6304V17.7472L1.12362 19.1411C0.756394 19.9551 0.513651 20.839 0.420654 21.7656L7.28629 20.3066C7.84519 20.1904 8.32555 19.8599 8.63786 19.4052L9.89697 17.5385V17.5381C10.0277 17.345 10.1038 17.1122 10.1038 16.8614V14.1158L12.5249 13.6012V18.5512L20.2965 16.8985L20.2967 16.8989Z" fill="white" fill-opacity="0.1"/>
</g>
<defs>
<clipPath id="clip0_793_14593">
<rect width="20.579" height="23" fill="white" transform="translate(0.420898 0.5)"/>
</clipPath>
</defs>
</svg>
