<svg width="22" height="22" viewBox="0 0 22 22" fill="none" xmlns="http://www.w3.org/2000/svg">
<path d="M2.75 19.25H19.25" stroke="#7367F0" stroke-width="1.5" stroke-linecap="round" stroke-linejoin="round"/>
<path d="M3.5 6.41667C3.5 6.00245 3.16421 5.66667 2.75 5.66667C2.33579 5.66667 2 6.00245 2 6.41667H2.75H3.5ZM9 6.41667C9 6.00245 8.66421 5.66667 8.25 5.66667C7.83579 5.66667 7.5 6.00245 7.5 6.41667H8.25H9ZM9 7.33333C9 6.91912 8.66421 6.58333 8.25 6.58333C7.83579 6.58333 7.5 6.91912 7.5 7.33333H8.25H9ZM14.5 6.41667C14.5 6.00245 14.1642 5.66667 13.75 5.66667C13.3358 5.66667 13 6.00245 13 6.41667H13.75H14.5ZM14.5 7.33333C14.5 6.91912 14.1642 6.58333 13.75 6.58333C13.3358 6.58333 13 6.91912 13 7.33333H13.75H14.5ZM19.25 6.41667H20C20 6.00245 19.6642 5.66667 19.25 5.66667V6.41667ZM2.75 6.41667L2.07918 6.08126C1.96293 6.31375 1.97536 6.58985 2.11201 6.81097C2.24867 7.03208 2.49007 7.16667 2.75 7.16667L2.75 6.41667ZM4.58333 2.75V2C4.29925 2 4.03956 2.1605 3.91251 2.41459L4.58333 2.75ZM17.4167 2.75L18.0875 2.41459C17.9604 2.1605 17.7007 2 17.4167 2V2.75ZM18.5792 6.75208C18.7644 7.12256 19.2149 7.27273 19.5854 7.08749C19.9559 6.90225 20.1061 6.45174 19.9208 6.08126L19.25 6.41667L18.5792 6.75208ZM2.75 6.41667H2V7.33333H2.75H3.5V6.41667H2.75ZM2.75 7.33333H2C2 9.26633 3.567 10.8333 5.5 10.8333V10.0833V9.33333C4.39543 9.33333 3.5 8.4379 3.5 7.33333H2.75ZM5.5 10.0833V10.8333C7.433 10.8333 9 9.26633 9 7.33333H8.25H7.5C7.5 8.4379 6.60457 9.33333 5.5 9.33333V10.0833ZM8.25 7.33333H9V6.41667H8.25H7.5V7.33333H8.25ZM8.25 7.33333H7.5C7.5 9.26633 9.067 10.8333 11 10.8333V10.0833V9.33333C9.89543 9.33333 9 8.4379 9 7.33333H8.25ZM11 10.0833V10.8333C12.933 10.8333 14.5 9.26633 14.5 7.33333H13.75H13C13 8.4379 12.1046 9.33333 11 9.33333V10.0833ZM13.75 7.33333H14.5V6.41667H13.75H13V7.33333H13.75ZM13.75 7.33333H13C13 9.26633 14.567 10.8333 16.5 10.8333V10.0833V9.33333C15.3954 9.33333 14.5 8.4379 14.5 7.33333H13.75ZM16.5 10.0833V10.8333C18.433 10.8333 20 9.26633 20 7.33333H19.25H18.5C18.5 8.4379 17.6046 9.33333 16.5 9.33333V10.0833ZM19.25 7.33333H20V6.41667H19.25H18.5V7.33333H19.25ZM19.25 6.41667V5.66667H2.75V6.41667V7.16667H19.25V6.41667ZM2.75 6.41667L3.42082 6.75208L5.25415 3.08541L4.58333 2.75L3.91251 2.41459L2.07918 6.08126L2.75 6.41667ZM4.58333 2.75V3.5H17.4167V2.75V2H4.58333V2.75ZM17.4167 2.75L16.7458 3.08541L18.5792 6.75208L19.25 6.41667L19.9208 6.08126L18.0875 2.41459L17.4167 2.75Z" fill="#7367F0"/>
<path d="M4.58333 19.25V9.94583" stroke="#7367F0" stroke-width="1.5" stroke-linecap="round" stroke-linejoin="round"/>
<path d="M17.4167 19.25V9.94583" stroke="#7367F0" stroke-width="1.5" stroke-linecap="round" stroke-linejoin="round"/>
<path d="M8.25 19.25V15.5833C8.25 14.5708 9.07081 13.75 10.0833 13.75H11.9167C12.9292 13.75 13.75 14.5708 13.75 15.5833V19.25" stroke="#7367F0" stroke-width="1.5" stroke-linecap="round" stroke-linejoin="round"/>
</svg>
