<svg width="229" height="61" viewBox="0 0 229 61" fill="none" xmlns="http://www.w3.org/2000/svg">
<path d="M205.757 14.3876L204.829 16.7225C203.18 20.8652 199.402 23.9987 195.082 24.9767C191.088 11.5081 183.277 8.2754 177.264 8.01801C162.693 7.38506 146.073 23.6347 141.016 38.579L140.263 40.7998L166.547 51.5125L167.477 49.1789C171.438 39.2262 180.957 31.9717 191.528 30.5252C193.92 37.3186 198.438 38.6415 201.089 38.7549C201.239 38.761 201.389 38.7638 201.539 38.7638C209.254 38.7638 217.725 30.4627 220.267 22.8129L221 20.5996L205.757 14.3876ZM177.052 12.9967C183.127 13.2568 187.504 17.5014 190.083 25.6239C189.724 25.6823 189.377 25.7943 189.021 25.8643C188.425 25.9791 187.839 26.1162 187.251 26.2636C186.325 26.4952 185.415 26.7655 184.514 27.0725C183.944 27.2653 183.38 27.4569 182.822 27.6789C181.9 28.0457 181.006 28.4667 180.119 28.9082C179.626 29.1533 179.126 29.3768 178.645 29.6437C177.601 30.2243 176.6 30.8736 175.618 31.5534C175.336 31.7476 175.037 31.912 174.76 32.1137C173.528 33.019 172.356 34.0044 171.246 35.057C170.933 35.3538 170.66 35.6859 170.358 35.9936C169.583 36.7827 168.828 37.5875 168.129 38.4446C167.769 38.888 167.446 39.3566 167.107 39.8171C166.53 40.5995 165.976 41.3934 165.467 42.2233C165.148 42.7428 164.855 43.2732 164.564 43.8097C164.339 44.2247 164.072 44.6131 163.864 45.0376L146.564 37.9855C152.128 24.633 166.601 12.5743 177.052 12.9967ZM201.301 33.7762C199.214 33.6872 197.613 32.3391 196.519 29.7591C201.452 28.5319 205.829 25.2436 208.364 20.8305L214.639 23.3888C211.82 28.9944 205.672 33.9181 201.301 33.7762Z" fill="#2776FF"/>
<path d="M80.0756 14.448C80.0756 14.0853 79.7972 13.7913 79.4529 13.7913C79.1085 13.7913 78.8287 14.0853 78.8287 14.448V18.7815C78.8287 20.5398 77.4718 21.9694 75.8039 21.9694H71.9654H68.8006H66.8834C65.2155 21.9694 63.8586 20.5398 63.8586 18.7815V14.448C63.8586 14.0853 63.5788 13.7913 63.2345 13.7913C62.9336 13.7913 62.6816 14.0167 62.6239 14.3162C62.6158 14.359 62.611 14.4032 62.611 14.4487V22.984C62.611 25.1206 60.9621 26.8585 58.9335 26.8585C58.5899 26.8585 58.3101 27.1525 58.3101 27.5152C58.3101 27.8785 58.5899 28.1726 58.9335 28.1726C61.6494 28.1726 63.8586 25.8452 63.8586 22.984V21.9565C64.6321 22.7755 65.7024 23.2828 66.8834 23.2828H68.8006H71.9654H75.8039C78.1591 23.2828 80.0756 21.2638 80.0756 18.7815V14.448Z" fill="#222222"/>
<path d="M102.342 18.1469C102.342 16.0396 103.969 14.3255 105.969 14.3255C107.969 14.3255 109.596 16.0396 109.596 18.1469C109.596 20.255 107.969 21.9691 105.969 21.9691C103.969 21.9691 102.342 20.255 102.342 18.1469ZM81.3771 28.1716C84.093 28.1716 86.3015 25.8449 86.3015 22.983V21.9562C87.0757 22.7752 88.146 23.2832 89.327 23.2832H106.898C107.013 23.2832 107.12 23.2479 107.213 23.1902C107.306 23.2479 107.412 23.2832 107.529 23.2832H116.933C119.289 23.2832 121.206 21.2635 121.206 18.7819V14.4477C121.206 14.0857 120.926 13.791 120.581 13.791C120.237 13.791 119.958 14.0857 119.958 14.4477V18.7819C119.958 20.5395 118.601 21.9691 116.933 21.9691H109.214C110.212 21.0278 110.844 19.6655 110.844 18.1469C110.844 15.3156 108.657 13.0113 105.969 13.0113C103.282 13.0113 101.095 15.3156 101.095 18.1469C101.095 19.6655 101.727 21.0278 102.725 21.9691H89.327C87.6591 21.9691 86.3022 20.5395 86.3022 18.7819V14.4477C86.3022 14.0857 86.0224 13.791 85.6781 13.791C85.3337 13.791 85.0546 14.0857 85.0546 14.4477V18.7819V22.983C85.0546 25.1203 83.405 26.8582 81.3771 26.8582C81.0335 26.8582 80.7537 27.1523 80.7537 27.5149C80.7537 27.8782 81.0335 28.1716 81.3771 28.1716Z" fill="#222222"/>
<path d="M115.501 9.39136H119.867C120.211 9.39136 120.491 9.09729 120.491 8.73464C120.491 8.3713 120.211 8.07723 119.867 8.07723H115.501C115.156 8.07723 114.877 8.3713 114.877 8.73464C114.877 9.09729 115.156 9.39136 115.501 9.39136Z" fill="#222222"/>
<path d="M103.786 9.39136H108.153C108.497 9.39136 108.776 9.09729 108.776 8.73464C108.776 8.3713 108.497 8.07723 108.153 8.07723H103.786C103.441 8.07723 103.162 8.3713 103.162 8.73464C103.162 9.09729 103.441 9.39136 103.786 9.39136Z" fill="#222222"/>
<path d="M74.1485 28.0759C74.4928 28.0759 74.7719 27.7819 74.7719 27.4192C74.7719 27.0565 74.4928 26.7618 74.1485 26.7618H69.7816C69.4373 26.7618 69.1582 27.0565 69.1582 27.4192C69.1582 27.7819 69.4373 28.0759 69.7816 28.0759H74.1485Z" fill="#222222"/>
<path d="M99.1723 34.5621C96.4578 34.5621 94.2485 36.8895 94.2485 39.7501V46.7669C94.2485 47.1302 94.5277 47.4236 94.872 47.4236C95.2163 47.4236 95.4954 47.1302 95.4954 46.7669V39.7501C95.4954 37.6135 97.145 35.8756 99.1723 35.8756C99.5166 35.8756 99.7957 35.5815 99.7957 35.2182C99.7957 34.8562 99.5166 34.5621 99.1723 34.5621Z" fill="#222222"/>
<path d="M120.705 34.5621C117.99 34.5621 115.781 36.8895 115.781 39.7501V46.7669C115.781 47.1302 116.06 47.4236 116.404 47.4236C116.749 47.4236 117.028 47.1302 117.028 46.7669V39.7501C117.028 37.6135 118.677 35.8756 120.705 35.8756C121.049 35.8756 121.329 35.5815 121.329 35.2182C121.329 34.8562 121.049 34.5621 120.705 34.5621Z" fill="#222222"/>
<path d="M63.3575 44.7052C61.3303 44.7052 59.68 42.9673 59.68 40.83V37.1715H61.7907C62.1351 37.1715 62.4142 36.8775 62.4142 36.5148C62.4142 36.1522 62.1351 35.8581 61.7907 35.8581H59.68V34.0041C59.68 33.6414 59.4009 33.3473 59.0566 33.3473C58.7122 33.3473 58.4331 33.6414 58.4331 34.0041V40.83C58.4331 43.6912 60.6423 46.0193 63.3575 46.0193C63.7018 46.0193 63.9809 45.7252 63.9809 45.3619C63.9809 44.9992 63.7018 44.7052 63.3575 44.7052Z" fill="#222222"/>
<path d="M70.8732 45.0313C68.4806 45.0313 66.5336 42.9804 66.5336 40.4594C66.5336 37.9378 68.4806 35.8868 70.8732 35.8868C73.2658 35.8868 75.2122 37.9378 75.2122 40.4594C75.2122 42.9804 73.2658 45.0313 70.8732 45.0313ZM75.9165 34.8864C75.5722 34.8864 75.293 35.1805 75.293 35.5432V36.8661C74.2709 35.4725 72.6702 34.5727 70.8732 34.5727C67.7927 34.5727 65.2874 37.2131 65.2874 40.4594C65.2874 43.7043 67.7927 46.3455 70.8732 46.3455C72.6702 46.3455 74.2709 45.4456 75.293 44.052V45.375C75.293 45.7376 75.5722 46.0317 75.9165 46.0317C76.2608 46.0317 76.5406 45.7376 76.5406 45.375V35.5432C76.5406 35.1805 76.2608 34.8864 75.9165 34.8864Z" fill="#222222"/>
<path d="M103.001 39.905C102.956 39.905 102.912 39.9104 102.869 39.9192C103.157 37.6686 104.93 35.9307 107.068 35.9307C109.201 35.9307 110.972 37.6611 111.264 39.905H103.001ZM107.068 34.6172C104.043 34.6172 101.583 37.2835 101.583 40.5617C101.583 40.5631 101.583 40.5637 101.583 40.5651C101.584 43.9689 104.213 46.7371 107.443 46.7371C107.787 46.7371 108.067 46.4437 108.067 46.0803C108.067 45.7177 107.787 45.4236 107.443 45.4236C105.106 45.4236 103.174 43.5811 102.874 41.2035C102.915 41.213 102.957 41.2191 103.001 41.2191H111.93C112.274 41.2191 112.553 40.925 112.553 40.5617C112.553 37.2835 110.092 34.6172 107.068 34.6172Z" fill="#222222"/>
<path d="M85.3137 45.0442C82.9211 45.0442 80.974 42.9932 80.974 40.4722C80.974 37.9506 82.9211 35.8996 85.3137 35.8996C87.7062 35.8996 89.6526 37.9506 89.6526 40.4722C89.6526 42.9932 87.7062 45.0442 85.3137 45.0442ZM90.3569 34.8993C90.0133 34.8993 89.7335 35.1933 89.7335 35.5567V36.879C88.7114 35.4854 87.1106 34.5855 85.3137 34.5855C82.2331 34.5855 79.7278 37.226 79.7278 40.4722C79.7278 43.7178 82.2331 46.3583 85.3137 46.3583C87.1106 46.3583 88.7114 45.4584 89.7335 44.0649V51.4185C89.7335 51.7819 90.0133 52.0759 90.3569 52.0759C90.7012 52.0759 90.981 51.7819 90.981 51.4185V35.5567C90.981 35.1933 90.7012 34.8993 90.3569 34.8993Z" fill="#222222"/>
</svg>
