<svg width="22" height="22" viewBox="0 0 22 22" fill="none" xmlns="http://www.w3.org/2000/svg">
<path d="M2.75 19.25L4.2625 15.7667C1.86833 12.3681 2.37695 7.71898 5.44932 4.9184C8.52168 2.11782 13.1979 2.04077 16.3608 4.7386C19.5238 7.43643 20.1853 12.0662 17.9044 15.5419C15.6235 19.0175 11.1129 20.2531 7.37917 18.425L2.75 19.25" stroke="#28C76F" stroke-width="1.5" stroke-linecap="round" stroke-linejoin="round"/>
<path d="M2.75 19.25L4.2625 15.7667C1.86833 12.3681 2.37695 7.71898 5.44932 4.9184C8.52168 2.11782 13.1979 2.04077 16.3608 4.7386C19.5238 7.43643 20.1853 12.0662 17.9044 15.5419C15.6235 19.0175 11.1129 20.2531 7.37917 18.425L2.75 19.25" stroke="white" stroke-opacity="0.2" stroke-width="1.5" stroke-linecap="round" stroke-linejoin="round"/>
<path d="M8.25 9.16666C8.25 9.41979 8.4552 9.625 8.70833 9.625C8.96146 9.625 9.16667 9.41979 9.16667 9.16666V8.25C9.16667 7.99687 8.96146 7.79166 8.70833 7.79166C8.4552 7.79166 8.25 7.99687 8.25 8.25V9.16666C8.25 11.698 10.302 13.75 12.8333 13.75H13.75C14.0031 13.75 14.2083 13.5448 14.2083 13.2917C14.2083 13.0385 14.0031 12.8333 13.75 12.8333H12.8333C12.5802 12.8333 12.375 13.0385 12.375 13.2917C12.375 13.5448 12.5802 13.75 12.8333 13.75" stroke="#28C76F" stroke-width="1.5" stroke-linecap="round" stroke-linejoin="round"/>
<path d="M8.25 9.16666C8.25 9.41979 8.4552 9.625 8.70833 9.625C8.96146 9.625 9.16667 9.41979 9.16667 9.16666V8.25C9.16667 7.99687 8.96146 7.79166 8.70833 7.79166C8.4552 7.79166 8.25 7.99687 8.25 8.25V9.16666C8.25 11.698 10.302 13.75 12.8333 13.75H13.75C14.0031 13.75 14.2083 13.5448 14.2083 13.2917C14.2083 13.0385 14.0031 12.8333 13.75 12.8333H12.8333C12.5802 12.8333 12.375 13.0385 12.375 13.2917C12.375 13.5448 12.5802 13.75 12.8333 13.75" stroke="white" stroke-opacity="0.2" stroke-width="1.5" stroke-linecap="round" stroke-linejoin="round"/>
</svg>
